<?xml version="1.0" standalone="no"?>
<!DOCTYPE svg PUBLIC "-//W3C//DTD SVG 20010904//EN"
 "http://www.w3.org/TR/2001/REC-SVG-20010904/DTD/svg10.dtd">
<svg version="1.0" xmlns="http://www.w3.org/2000/svg"
 width="107.000000pt" height="107.000000pt" viewBox="0 0 107.000000 107.000000"
 preserveAspectRatio="xMidYMid meet">
<metadata>
Created by potrace 1.11, written by Peter Selinger 2001-2013
</metadata>
<g transform="translate(0.000000,107.000000) scale(0.100000,-0.100000)"
fill="#000000" stroke="none">
<path d="M10 1008 c0 -7 65 -200 144 -428 l144 -415 45 -3 c41 -3 46 -1 55 25
5 15 35 100 66 187 31 88 58 161 60 163 2 2 20 -45 41 -104 21 -60 51 -145 68
-191 l29 -83 45 3 46 3 77 225 c43 124 110 316 149 428 l71 203 -57 -3 -57 -3
-116 -355 -116 -355 -58 167 -58 167 61 182 c34 103 57 187 52 192 -4 4 -26 7
-47 5 l-39 -3 -45 -139 -46 -139 -45 139 -45 139 -38 3 c-21 2 -43 -1 -47 -5
-5 -5 18 -88 51 -188 35 -104 58 -189 55 -202 -3 -12 -28 -87 -56 -168 l-52
-146 -116 353 -117 353 -52 3 c-38 2 -52 -1 -52 -10z"/>
</g>
</svg>
